HIERARCHY
ROOT Hips
{
	OFFSET 0.000000 83.214638 0.000000
	CHANNELS 6 Xposition Yposition Zposition Xrotation Yrotation Zrotation
	JOINT Pelvis
	{
		OFFSET 0.000000 0.000000 0.000000
		CHANNELS 3 Xrotation Yrotation Zrotation
		JOINT LeftUpLeg
		{
			OFFSET 8.479700 -4.795502 -0.379100
			CHANNELS 3 Xrotation Yrotation Zrotation
			JOINT LeftLeg
			{
				OFFSET 0.024144 -32.555107 0.112900
				CHANNELS 3 Xrotation Yrotation Zrotation
				JOINT LeftFoot
				{
					OFFSET -0.024144 -32.638630 -3.012600
					CHANNELS 3 Xrotation Yrotation Zrotation
					JOINT LeftToeBase
					{
						OFFSET 0.970200 -13.225400 11.864200
						CHANNELS 3 Xrotation Yrotation Zrotation
						End Site
						{
							OFFSET 0.000000 12.319262 0.000000
						}
					}
					JOINT LFootTongue
					{
						OFFSET 1.142400 -1.059800 6.665200
						CHANNELS 3 Xrotation Yrotation Zrotation
						End Site
						{
							OFFSET 0.000000 12.319262 0.000000
						}
					}
				}
				JOINT LeftPantLeg
				{
					OFFSET 0.918482 -16.533964 -2.284700
					CHANNELS 3 Xrotation Yrotation Zrotation
					End Site
					{
						OFFSET 0.350399 24.744368 0.000000
					}
				}
			}
		}
		JOINT RightUpLeg
		{
			OFFSET -8.479700 -4.795502 -0.379100
			CHANNELS 3 Xrotation Yrotation Zrotation
			JOINT RightLeg
			{
				OFFSET -0.023144 -32.555092 0.112900
				CHANNELS 3 Xrotation Yrotation Zrotation
				JOINT RightFoot
				{
					OFFSET 0.023144 -32.638641 -3.012700
					CHANNELS 3 Xrotation Yrotation Zrotation
					JOINT RightToeBase
					{
						OFFSET -0.970200 -13.225400 11.864200
						CHANNELS 3 Xrotation Yrotation Zrotation
						End Site
						{
							OFFSET 0.000000 12.319244 0.000000
						}
					}
					JOINT RFootTongue
					{
						OFFSET -1.142200 -1.059800 6.665200
						CHANNELS 3 Xrotation Yrotation Zrotation
						End Site
						{
							OFFSET 0.000000 12.319243 0.000000
						}
					}
				}
				JOINT RightPantLeg
				{
					OFFSET -0.919482 -16.533978 -2.284800
					CHANNELS 3 Xrotation Yrotation Zrotation
					End Site
					{
						OFFSET -0.350400 24.744419 0.000000
					}
				}
			}
		}
	}
	JOINT Spine
	{
		OFFSET 0.000000 7.722000 1.166200
		CHANNELS 3 Xrotation Yrotation Zrotation
		JOINT Spine1
		{
			OFFSET 0.000000 12.024101 0.248800
			CHANNELS 3 Xrotation Yrotation Zrotation
			JOINT Spine2
			{
				OFFSET 0.000000 11.502998 -0.491200
				CHANNELS 3 Xrotation Yrotation Zrotation
				JOINT Neck
				{
					OFFSET 0.000000 18.430702 -3.123100
					CHANNELS 3 Xrotation Yrotation Zrotation
					JOINT Head
					{
						OFFSET 0.000000 9.051102 1.034000
						CHANNELS 3 Xrotation Yrotation Zrotation
						JOINT HairB
						{
							OFFSET 0.208400 24.786102 24.822300
							CHANNELS 3 Xrotation Yrotation Zrotation
							End Site
							{
								OFFSET 0.000000 32.263779 0.000000
							}
						}
						JOINT HairA
						{
							OFFSET -7.081100 24.428299 23.196600
							CHANNELS 3 Xrotation Yrotation Zrotation
							End Site
							{
								OFFSET 0.000000 32.263779 0.000000
							}
						}
						JOINT Hat
						{
							OFFSET 16.728800 15.048294 -15.439601
							CHANNELS 3 Xrotation Yrotation Zrotation
							End Site
							{
								OFFSET 0.000000 32.263779 0.000000
							}
						}
					}
				}
				JOINT LeftShoulder
				{
					OFFSET 6.197800 13.665199 -4.064700
					CHANNELS 3 Xrotation Yrotation Zrotation
					JOINT LeftArm
					{
						OFFSET 7.778100 -0.187103 -1.709300
						CHANNELS 3 Xrotation Yrotation Zrotation
						JOINT LeftForeArm
						{
							OFFSET 22.049376 0.000000 0.000000
							CHANNELS 3 Xrotation Yrotation Zrotation
							JOINT LeftHand
							{
								OFFSET 23.009392 0.000000 0.000000
								CHANNELS 3 Xrotation Yrotation Zrotation
								JOINT LeftHandThumb1
								{
									OFFSET 3.507191 -2.063065 3.133727
									CHANNELS 3 Xrotation Yrotation Zrotation
									JOINT LeftHandThumb2
									{
										OFFSET 3.101337 -1.790558 1.790558
										CHANNELS 3 Xrotation Yrotation Zrotation
										JOINT LeftHandThumb3
										{
											OFFSET 3.058640 -1.765907 1.765906
											CHANNELS 3 Xrotation Yrotation Zrotation
											End Site
											{
												OFFSET -0.415260 3.926476 -0.049563
											}
										}
									}
								}
								JOINT LeftHandIndex1
								{
									OFFSET 11.334419 -0.901459 3.706815
									CHANNELS 3 Xrotation Yrotation Zrotation
									JOINT LeftHandIndex2
									{
										OFFSET 3.283112 0.000000 0.000000
										CHANNELS 3 Xrotation Yrotation Zrotation
										JOINT LeftHandIndex3
										{
											OFFSET 3.323853 0.000000 0.000000
											CHANNELS 3 Xrotation Yrotation Zrotation
											End Site
											{
												OFFSET -1.135597 3.097809 0.402452
											}
										}
									}
								}
								JOINT LeftHandMiddle1
								{
									OFFSET 11.335861 0.000000 0.000000
									CHANNELS 3 Xrotation Yrotation Zrotation
									JOINT LeftHandMiddle2
									{
										OFFSET 3.410492 0.000000 0.000000
										CHANNELS 3 Xrotation Yrotation Zrotation
										JOINT LeftHandMiddle3
										{
											OFFSET 3.312172 0.000000 0.000000
											CHANNELS 3 Xrotation Yrotation Zrotation
											End Site
											{
												OFFSET -1.150200 3.080154 0.400270
											}
										}
									}
								}
								JOINT LeftHandRing1
								{
									OFFSET 11.514786 -0.013176 -3.003090
									CHANNELS 3 Xrotation Yrotation Zrotation
									JOINT LeftHandRing2
									{
										OFFSET 3.053307 0.000000 0.000000
										CHANNELS 3 Xrotation Yrotation Zrotation
										JOINT LeftHandRing3
										{
											OFFSET 3.295807 0.000000 0.000000
											CHANNELS 3 Xrotation Yrotation Zrotation
											End Site
											{
												OFFSET -1.281006 3.013344 0.375733
											}
										}
									}
								}
								JOINT LeftHandPinky1
								{
									OFFSET 10.518692 -0.960396 -5.730441
									CHANNELS 3 Xrotation Yrotation Zrotation
									JOINT LeftHandPinky2
									{
										OFFSET 2.861649 0.000000 0.000000
										CHANNELS 3 Xrotation Yrotation Zrotation
										JOINT LeftHandPinky3
										{
											OFFSET 2.863380 0.000000 0.000000
											CHANNELS 3 Xrotation Yrotation Zrotation
											End Site
											{
												OFFSET -0.843597 2.711159 0.369971
											}
										}
									}
								}
							}
							JOINT LSleeve
							{
								OFFSET 6.676277 -0.344902 -1.011730
								CHANNELS 3 Xrotation Yrotation Zrotation
								End Site
								{
									OFFSET 0.000000 14.885353 0.000000
								}
							}
						}
					}
				}
				JOINT RightShoulder
				{
					OFFSET -6.197800 13.665199 -4.064700
					CHANNELS 3 Xrotation Yrotation Zrotation
					JOINT RightArm
					{
						OFFSET -7.778100 -0.187103 -1.709300
						CHANNELS 3 Xrotation Yrotation Zrotation
						JOINT RightForeArm
						{
							OFFSET -22.049376 0.000000 0.000000
							CHANNELS 3 Xrotation Yrotation Zrotation
							JOINT RightHand
							{
								OFFSET -23.009392 0.000000 0.000000
								CHANNELS 3 Xrotation Yrotation Zrotation
								JOINT RightHandThumb1
								{
									OFFSET -3.507191 -2.063065 3.133727
									CHANNELS 3 Xrotation Yrotation Zrotation
									JOINT RightHandThumb2
									{
										OFFSET -3.101337 -1.790558 1.790558
										CHANNELS 3 Xrotation Yrotation Zrotation
										JOINT RightHandThumb3
										{
											OFFSET -3.058640 -1.765907 1.765906
											CHANNELS 3 Xrotation Yrotation Zrotation
											End Site
											{
												OFFSET 0.415260 3.926476 -0.049563
											}
										}
									}
								}
								JOINT RightHandIndex1
								{
									OFFSET -11.334419 -0.901459 3.706815
									CHANNELS 3 Xrotation Yrotation Zrotation
									JOINT RightHandIndex2
									{
										OFFSET -3.283112 0.000000 0.000000
										CHANNELS 3 Xrotation Yrotation Zrotation
										JOINT RightHandIndex3
										{
											OFFSET -3.323853 0.000000 0.000000
											CHANNELS 3 Xrotation Yrotation Zrotation
											End Site
											{
												OFFSET 1.135597 3.097809 0.402452
											}
										}
									}
								}
								JOINT RightHandMiddle1
								{
									OFFSET -11.335861 0.000000 0.000000
									CHANNELS 3 Xrotation Yrotation Zrotation
									JOINT RightHandMiddle2
									{
										OFFSET -3.410492 0.000000 0.000000
										CHANNELS 3 Xrotation Yrotation Zrotation
										JOINT RightHandMiddle3
										{
											OFFSET -3.312172 0.000000 0.000000
											CHANNELS 3 Xrotation Yrotation Zrotation
											End Site
											{
												OFFSET 1.150200 3.080154 0.400270
											}
										}
									}
								}
								JOINT RightHandRing1
								{
									OFFSET -11.514786 -0.013176 -3.003090
									CHANNELS 3 Xrotation Yrotation Zrotation
									JOINT RightHandRing2
									{
										OFFSET -3.053307 0.000000 0.000000
										CHANNELS 3 Xrotation Yrotation Zrotation
										JOINT RightHandRing3
										{
											OFFSET -3.295807 0.000000 0.000000
											CHANNELS 3 Xrotation Yrotation Zrotation
											End Site
											{
												OFFSET 1.281006 3.013344 0.375733
											}
										}
									}
								}
								JOINT RightHandPinky1
								{
									OFFSET -10.518692 -0.960396 -5.730441
									CHANNELS 3 Xrotation Yrotation Zrotation
									JOINT RightHandPinky2
									{
										OFFSET -2.861649 0.000000 0.000000
										CHANNELS 3 Xrotation Yrotation Zrotation
										JOINT RightHandPinky3
										{
											OFFSET -2.863380 0.000000 0.000000
											CHANNELS 3 Xrotation Yrotation Zrotation
											End Site
											{
												OFFSET 0.843597 2.711159 0.369971
											}
										}
									}
								}
							}
							JOINT RSleeve
							{
								OFFSET -6.676277 -0.344902 -1.011730
								CHANNELS 3 Xrotation Yrotation Zrotation
								End Site
								{
									OFFSET 0.000000 14.885353 0.000000
								}
							}
						}
					}
				}
				JOINT Backpack
				{
					OFFSET 0.000000 -2.471497 36.677502
					CHANNELS 3 Xrotation Yrotation Zrotation
					End Site
					{
						OFFSET 0.000000 20.427315 0.000000
					}
				}
				JOINT Hood
				{
					OFFSET 0.000000 18.754097 -10.431000
					CHANNELS 3 Xrotation Yrotation Zrotation
					JOINT Hood1
					{
						OFFSET 0.000000 -5.011002 -7.685901
						CHANNELS 3 Xrotation Yrotation Zrotation
						End Site
						{
							OFFSET 0.000000 9.175140 0.000000
						}
					}
				}
				JOINT LHoodieString
				{
					OFFSET 5.250500 16.397697 3.089900
					CHANNELS 3 Xrotation Yrotation Zrotation
					JOINT LHoodieString1
					{
						OFFSET 0.257700 -6.364304 3.694600
						CHANNELS 3 Xrotation Yrotation Zrotation
						JOINT LHoodieString2
						{
							OFFSET 0.000000 -9.643799 2.679100
							CHANNELS 3 Xrotation Yrotation Zrotation
							End Site
							{
								OFFSET 0.000000 10.009018 0.000000
							}
						}
					}
				}
				JOINT RHoodieString
				{
					OFFSET -5.250500 16.397697 3.089900
					CHANNELS 3 Xrotation Yrotation Zrotation
					JOINT RHoodieString1
					{
						OFFSET -0.257700 -6.364304 3.694600
						CHANNELS 3 Xrotation Yrotation Zrotation
						JOINT RHoodieString2
						{
							OFFSET 0.000000 -9.643799 2.679100
							CHANNELS 3 Xrotation Yrotation Zrotation
							End Site
							{
								OFFSET 0.000000 10.009018 0.000000
							}
						}
					}
				}
			}
			JOINT LBackpack_Strap
			{
				OFFSET 15.223200 -7.719803 -6.610900
				CHANNELS 3 Xrotation Yrotation Zrotation
				End Site
				{
					OFFSET 0.000000 16.040596 0.000000
				}
			}
			JOINT RBackpack_Strap
			{
				OFFSET -15.223000 -7.719803 -6.610900
				CHANNELS 3 Xrotation Yrotation Zrotation
				End Site
				{
					OFFSET 0.000000 16.040596 0.000000
				}
			}
		}
	}
	JOINT BoyFacialAnim_Joint
	{
		OFFSET 1.000000 -82.208099 -1.550900
		CHANNELS 3 Xrotation Yrotation Zrotation
		End Site
		{
			OFFSET 0.000000 30.012791 0.000000
		}
	}
}
MOTION
Frames: 4
Frame Time: 0.033333
-10.817128 16.088707 311.277405 264.215213 2.450274 3.394094 0.000000 0.000000 -0.000000 -50.668614 9.925876 11.559422 64.155912 -6.785866 0.676422 39.225647 -6.285704 -5.100119 0.000000 0.000000 0.000000 0.000000 0.000000 0.000000 -0.000001 -0.000000 -0.000000 -49.542265 -22.853417 -16.536551 108.806840 8.508433 -2.421429 -25.462322 -15.825220 -38.504707 0.000002 0.000002 0.000001 0.000002 0.000002 0.000001 -0.000002 -0.000001 -0.000001 18.318021 6.113081 -1.186782 24.408417 3.989078 1.275364 16.459176 4.395270 1.509561 6.227778 1.471438 3.837002 18.011352 -4.130315 10.327115 0.000000 -0.000001 -0.000000 0.000000 -0.000001 -0.000000 0.000000 -0.000001 -0.000000 -32.261647 -4.267042 -0.043415 -50.957402 -36.341364 -97.037344 0.000041 -58.637201 0.000032 -91.831224 -25.911033 9.575063 1.681873 1.075688 0.624667 18.765098 -3.987691 6.914248 0.000004 0.000001 0.000002 0.034299 4.658069 -43.383586 2.944394 5.080216 -60.169930 0.000001 -0.000001 -0.000000 0.405917 5.507056 -52.453165 3.387139 5.308616 -65.057470 0.000002 -0.000001 -0.000002 -0.074373 5.736787 -61.061420 4.055015 5.569495 -72.094907 0.000000 -0.000001 -0.000006 -6.565577 4.545140 -72.425229 3.299628 5.267233 -64.107835 0.000001 -0.000000 -0.000002 -0.000001 -0.000001 -0.000001 -27.597726 -5.474523 4.907578 -13.006237 -4.788421 68.995333 -0.009244 89.205973 0.009264 -33.844926 -6.397080 56.297602 8.377121 -4.904141 11.022003 21.620211 -18.183898 -18.379218 0.000001 0.000001 0.000005 -0.920019 1.683585 12.434963 0.748106 -2.533480 32.898293 -0.000001 0.000000 0.000002 3.413055 -7.186270 51.650246 6.296798 -4.359568 110.634673 0.000001 0.000001 0.000005 -3.349040 -2.600433 57.010561 5.440852 -4.590909 99.698154 -0.000001 -0.000001 -0.000001 -3.996450 -3.303942 64.593857 4.058849 -4.618681 82.610516 -0.000000 -0.000002 -0.000004 -0.000000 -0.000000 -0.000000 0.000001 0.000001 -0.000000 0.000001 0.000001 -0.000000 0.000001 0.000001 -0.000000 0.000001 0.000001 -0.000000 0.000001 0.000001 -0.000000 0.000002 -0.000000 -0.000000 0.000001 0.000001 -0.000000 0.000001 0.000001 -0.000000 0.000002 -0.000000 -0.000000 0.000002 0.000001 0.000000 0.000002 0.000001 0.000000 0.000000 0.000000 -0.000000 
-11.153726 14.069633 313.257690 279.567566 -1.435582 2.739350 -0.000000 0.000000 -0.000000 -49.937525 12.943611 9.173562 53.216818 -6.733038 2.629939 26.160094 -1.337133 7.381794 0.000003 -0.000000 -0.000001 0.000003 -0.000000 -0.000000 -0.000000 0.000000 -0.000000 -65.954062 -19.204458 -11.369360 101.628434 2.108262 -1.527510 -26.070328 -19.193959 -42.049189 -0.000000 -0.000003 -0.000002 -0.000000 -0.000003 -0.000002 -0.000003 -0.000000 -0.000000 16.945986 6.781687 -2.652355 22.936967 5.093768 1.084834 13.894800 5.743971 1.392179 6.022857 1.465177 3.979775 11.376510 -2.476284 6.740257 0.000000 -0.000000 -0.000000 0.000000 -0.000000 -0.000000 0.000000 -0.000000 -0.000000 -34.711076 -8.322964 -2.673308 -44.644784 -35.323833 -90.068660 -0.000012 -61.359940 -0.000005 -90.741597 -29.024004 12.734331 2.112982 2.244357 1.006129 18.863234 -3.638823 7.015480 0.000003 -0.000002 -0.000000 -0.005193 4.559507 -42.462224 2.944391 5.080219 -60.169937 0.000000 -0.000001 -0.000005 0.405915 5.507048 -52.453151 3.387140 5.308616 -65.057470 -0.000001 0.000001 -0.000001 -0.074380 5.736781 -61.061440 4.055015 5.569496 -72.094907 -0.000001 0.000002 -0.000000 -6.565572 4.545140 -72.425229 3.299624 5.267222 -64.107835 -0.000000 0.000001 0.000002 -0.000001 0.000001 0.000001 -29.983031 -4.165238 10.926482 -17.725159 -10.404647 69.560866 -0.000914 88.659414 0.000921 -25.185279 -12.033504 62.936963 8.377119 -4.904143 11.022004 21.620206 -18.183900 -18.379228 0.000001 0.000000 0.000004 -0.920022 1.683587 12.434968 0.748103 -2.533479 32.898293 -0.000003 -0.000003 -0.000002 3.413055 -7.186273 51.650246 6.296800 -4.359570 110.634673 0.000002 0.000003 0.000002 -3.349041 -2.600433 57.010564 5.440855 -4.590907 99.698154 -0.000001 0.000000 0.000002 -3.996445 -3.303941 64.593864 4.058845 -4.618681 82.610516 0.000003 -0.000002 -0.000002 -0.000000 0.000001 0.000000 0.000000 -0.000001 0.000000 0.000000 -0.000001 0.000000 0.000000 -0.000001 0.000000 0.000000 -0.000001 0.000000 0.000000 -0.000001 0.000000 -0.000002 0.000000 -0.000000 0.000000 -0.000001 0.000000 0.000000 -0.000001 0.000000 -0.000002 0.000000 -0.000000 -0.000002 0.000000 -0.000001 -0.000002 0.000000 -0.000001 -0.000000 0.000000 -0.000000 
-11.359339 13.744301 316.299072 295.606571 -4.043582 2.522700 0.000002 -0.000000 -0.000000 -54.934057 16.886507 9.856943 44.853910 -7.898339 1.533826 23.397163 -0.115360 16.874163 0.000002 0.000000 0.000001 0.000002 0.000000 0.000001 -0.000000 0.000000 -0.000000 -82.801571 -20.711101 -6.447454 98.442103 -2.974684 -0.829700 -10.474607 -29.309486 -41.846120 0.000002 -0.000000 -0.000003 0.000002 -0.000000 -0.000003 -0.000004 -0.000001 0.000002 15.991428 5.650307 -3.646632 22.483091 4.774231 0.860820 13.312140 5.571717 1.142121 8.847664 2.261642 0.384558 -7.892146 -2.057237 10.072421 -0.000000 -0.000000 -0.000001 -0.000000 -0.000000 -0.000001 -0.000000 -0.000000 -0.000001 -36.703951 -9.236224 -4.506952 -43.237263 -34.352126 -81.492695 0.000043 -71.275981 0.000037 -89.119086 -35.799313 20.473277 2.529751 3.388031 1.367051 18.959072 -3.298312 7.113960 0.000004 -0.000004 0.000002 -0.042129 4.462651 -41.562951 2.944394 5.080218 -60.169930 -0.000001 -0.000003 -0.000006 0.405907 5.507038 -52.453169 3.387139 5.308616 -65.057470 0.000002 -0.000000 -0.000003 -0.074381 5.736773 -61.061406 4.055035 5.569517 -72.094907 -0.000000 0.000000 -0.000004 -6.565580 4.545125 -72.425215 3.299628 5.267231 -64.107835 0.000000 0.000002 0.000000 -0.000002 0.000000 -0.000001 -33.001736 -3.556910 13.898042 -29.567585 -6.725349 70.216401 -0.001253 87.867481 0.001245 -18.166773 -18.328305 68.626189 8.377118 -4.904139 11.021999 21.620212 -18.183902 -18.379231 0.000001 -0.000004 0.000000 -0.920025 1.683589 12.434960 0.748105 -2.533479 32.898296 -0.000000 0.000001 0.000002 3.413056 -7.186262 51.650246 6.296800 -4.359569 110.634680 0.000002 0.000002 0.000002 -3.349041 -2.600428 57.010561 5.440858 -4.590908 99.698154 0.000001 -0.000000 0.000002 -3.996452 -3.303935 64.593864 4.058846 -4.618684 82.610523 -0.000002 -0.000001 0.000004 -0.000000 -0.000000 0.000001 -0.000000 -0.000001 -0.000000 -0.000000 -0.000001 -0.000000 -0.000000 -0.000001 -0.000000 -0.000000 -0.000001 -0.000000 -0.000000 -0.000001 -0.000000 -0.000000 -0.000000 -0.000000 -0.000000 -0.000001 -0.000000 -0.000000 -0.000001 -0.000000 -0.000000 -0.000000 -0.000000 0.000000 -0.000000 -0.000000 0.000000 -0.000000 -0.000000 0.000002 -0.000000 -0.000000 
-11.767092 15.014702 320.678772 308.234580 -4.703933 1.358642 -0.000001 0.000000 -0.000000 -60.182286 18.684806 12.862441 29.052589 -2.502611 0.534072 51.187678 -1.287700 16.150532 -0.000001 0.000001 -0.000001 -0.000001 0.000001 -0.000000 0.000001 -0.000002 0.000000 -96.015412 -24.963624 -4.061988 102.937979 -9.690240 -0.815977 -11.540084 -29.710377 -42.914447 0.000000 0.000002 0.000001 0.000000 0.000002 0.000001 0.000001 -0.000001 0.000003 15.638396 3.059310 -3.936744 22.303325 2.850611 0.671307 14.147547 3.707960 0.762309 9.699939 3.469196 0.701492 -21.282567 0.745852 14.086427 -0.000000 0.000000 -0.000000 -0.000000 0.000000 -0.000000 -0.000000 0.000000 -0.000000 -37.817613 -7.922446 -2.636525 -34.897185 -29.696966 -68.642745 0.000355 -85.668939 0.000339 -93.511341 -47.445977 25.860495 2.926471 4.488775 1.703026 19.051097 -2.971427 7.208289 0.000001 -0.000001 -0.000001 -0.076044 4.369119 -40.699663 2.944392 5.080220 -60.169930 -0.000003 -0.000001 -0.000005 0.405907 5.507057 -52.453151 3.387137 5.308618 -65.057470 0.000001 0.000001 -0.000001 -0.074377 5.736801 -61.061420 4.055030 5.569508 -72.094907 -0.000000 0.000000 -0.000002 -6.565576 4.545143 -72.425209 3.299626 5.267234 -64.107814 -0.000000 -0.000001 -0.000000 0.000000 -0.000001 0.000003 -35.555998 -4.715004 13.410807 -37.293680 7.016870 75.276717 -0.000003 84.261366 0.000009 -13.006683 -20.694329 70.184545 8.377120 -4.904142 11.022004 21.620204 -18.183902 -18.379221 -0.000000 -0.000001 0.000001 -0.920017 1.683590 12.434967 0.748108 -2.533479 32.898299 0.000001 -0.000003 0.000001 3.413054 -7.186266 51.650246 6.296802 -4.359571 110.634673 0.000002 0.000004 -0.000001 -3.349039 -2.600432 57.010564 5.440852 -4.590909 99.698154 0.000002 -0.000000 0.000004 -3.996446 -3.303936 64.593857 4.058843 -4.618686 82.610516 -0.000000 0.000001 -0.000001 0.000000 -0.000001 -0.000000 0.000000 -0.000000 -0.000000 0.000000 -0.000000 -0.000000 0.000000 -0.000000 -0.000000 0.000000 -0.000000 -0.000000 0.000000 -0.000000 -0.000000 -0.000000 -0.000000 0.000000 0.000000 -0.000000 -0.000000 0.000000 -0.000000 -0.000000 -0.000000 -0.000000 0.000000 0.000001 -0.000000 0.000000 0.000001 -0.000000 0.000000 -0.000001 0.000000 -0.000000 
